<svg xmlns="http://www.w3.org/2000/svg" width="1800" height="980" viewBox="0 0 1800 980">
  <!-- All visual elements are manually redrawn using basic SVG primitives. No external icons, raster images, AI-generated graphics, or third-party assets are used. -->

  <defs>
    <marker id="arrow-blue" markerWidth="12" markerHeight="12" refX="10" refY="6" orient="auto" markerUnits="strokeWidth">
      <path d="M2,2 L10,6 L2,10 Z" fill="#1455b8"/>
    </marker>
    <marker id="arrow-green" markerWidth="12" markerHeight="12" refX="10" refY="6" orient="auto" markerUnits="strokeWidth">
      <path d="M2,2 L10,6 L2,10 Z" fill="#2f7d3b"/>
    </marker>
    <marker id="arrow-purple" markerWidth="12" markerHeight="12" refX="10" refY="6" orient="auto" markerUnits="strokeWidth">
      <path d="M2,2 L10,6 L2,10 Z" fill="#7650a8"/>
    </marker>
    <marker id="arrow-orange" markerWidth="12" markerHeight="12" refX="10" refY="6" orient="auto" markerUnits="strokeWidth">
      <path d="M2,2 L10,6 L2,10 Z" fill="#e66b21"/>
    </marker>
    <marker id="arrow-gray" markerWidth="12" markerHeight="12" refX="10" refY="6" orient="auto" markerUnits="strokeWidth">
      <path d="M2,2 L10,6 L2,10 Z" fill="#8a8a8a"/>
    </marker>
    <marker id="arrow-black" markerWidth="12" markerHeight="12" refX="10" refY="6" orient="auto" markerUnits="strokeWidth">
      <path d="M2,2 L10,6 L2,10 Z" fill="#222222"/>
    </marker>

    <style>
      text { font-family: Arial, Helvetica, sans-serif; fill: #111827; }
      .title { font-size: 38px; font-weight: 700; }
      .subtitle { font-size: 20px; fill: #4b5563; font-style: italic; }
      .section { font-size: 20px; font-weight: 700; }
      .label { font-size: 15px; font-weight: 700; }
      .body { font-size: 14px; }
      .small { font-size: 12px; }
      .tiny { font-size: 11px; }
      .math { font-family: Arial, Helvetica, sans-serif; font-style: italic; }
    </style>
  </defs>

  <!-- Background -->
  <rect x="0" y="0" width="1800" height="980" fill="#ffffff"/>

  <!-- Title -->
  <g id="title">
    <text class="title" x="900" y="45" text-anchor="middle">FedSAM3-Hetero Framework</text>
    <text class="subtitle" x="900" y="76" text-anchor="middle">FedAvg-based Restricted Routing over Compatible Parameter Groups</text>
  </g>

  <!-- Heterogeneous Clients -->
  <g id="heterogeneous-clients">
    <rect x="30" y="105" width="405" height="710" rx="10" fill="#fbfdff" stroke="#1c5fb8" stroke-width="1.6"/>
    <circle cx="70" cy="132" r="16" fill="#0b4ea2"/>
    <text x="70" y="139" font-size="20" font-weight="700" fill="#ffffff" text-anchor="middle">1</text>
    <text class="section" x="100" y="140" fill="#0b4ea2">Heterogeneous Clients</text>

    <!-- Image-only Client -->
    <g id="image-client">
      <rect x="55" y="165" width="350" height="185" rx="10" fill="#f2f7ff" stroke="#5a8fd8" stroke-width="1.4"/>
      <text class="section" x="230" y="194" text-anchor="middle" fill="#0b4ea2">Image-only Client</text>
      <text class="small" x="78" y="214">MRI slice</text>
      <rect x="74" y="224" width="62" height="62" rx="6" fill="#111111" stroke="#111111"/>
      <ellipse cx="105" cy="255" rx="23" ry="28" fill="#d9d9d9"/>
      <ellipse cx="105" cy="255" rx="15" ry="20" fill="#f7f7f7"/>
      <path d="M96,242 C104,252 91,263 104,276 C108,265 119,263 112,248 C108,241 101,238 96,242 Z" fill="#8c8c8c"/>
      <line x1="151" y1="255" x2="179" y2="255" stroke="#0b4ea2" stroke-width="3" marker-end="url(#arrow-blue)"/>
      <rect x="190" y="220" width="150" height="70" rx="8" fill="#e6f0ff" stroke="#4d84cf" stroke-width="1.2"/>
      <text class="body" x="265" y="250" text-anchor="middle">Local</text>
      <text class="body" x="265" y="270" text-anchor="middle">SAM3 Model</text>
      <line x1="350" y1="255" x2="378" y2="255" stroke="#0b4ea2" stroke-width="3" marker-end="url(#arrow-blue)"/>
      <rect x="376" y="224" width="58" height="62" rx="6" fill="#111111"/>
      <circle cx="405" cy="255" r="17" fill="#ffffff"/>
      <circle cx="394" cy="247" r="11" fill="#ffffff"/>
      <circle cx="415" cy="247" r="11" fill="#ffffff"/>
      <text class="small" x="394" y="304" text-anchor="middle">Target mask</text>
      <rect x="105" y="310" width="250" height="28" rx="6" fill="#ffffff" stroke="#73849a" stroke-dasharray="5 4"/>
      <text class="body" x="230" y="330" text-anchor="middle">Loss: <tspan class="math">L_seg</tspan></text>
    </g>

    <!-- Multimodal Client -->
    <g id="multimodal-client">
      <rect x="55" y="372" width="350" height="205" rx="10" fill="#f4fbf2" stroke="#6fa66f" stroke-width="1.4"/>
      <text class="section" x="230" y="402" text-anchor="middle" fill="#1c6b27">Multimodal Client</text>
      <text class="small" x="78" y="423">MRI slice</text>
      <rect x="74" y="433" width="56" height="56" rx="6" fill="#111111"/>
      <ellipse cx="102" cy="461" rx="21" ry="25" fill="#d9d9d9"/>
      <ellipse cx="102" cy="461" rx="13" ry="18" fill="#f7f7f7"/>
      <path d="M95,449 C102,458 91,468 102,480 C107,470 116,467 110,453 C106,447 100,445 95,449 Z" fill="#8c8c8c"/>
      <text x="146" y="465" font-size="26" font-weight="700">+</text>
      <rect x="166" y="433" width="50" height="56" rx="5" fill="#ffffff" stroke="#2f7d3b" stroke-width="1.3"/>
      <line x1="177" y1="446" x2="203" y2="446" stroke="#2f7d3b" stroke-width="2"/>
      <line x1="177" y1="459" x2="203" y2="459" stroke="#2f7d3b" stroke-width="2"/>
      <line x1="177" y1="472" x2="195" y2="472" stroke="#2f7d3b" stroke-width="2"/>
      <text class="small" x="191" y="505" text-anchor="middle">Text feature</text>
      <line x1="226" y1="461" x2="250" y2="461" stroke="#2f7d3b" stroke-width="3" marker-end="url(#arrow-green)"/>
      <rect x="260" y="430" width="105" height="62" rx="8" fill="#eff8ed" stroke="#5d9a61" stroke-width="1.2"/>
      <text class="small" x="312" y="457" text-anchor="middle">Local</text>
      <text class="small" x="312" y="475" text-anchor="middle">SAM3 Model</text>
      <line x1="373" y1="461" x2="396" y2="461" stroke="#2f7d3b" stroke-width="3" marker-end="url(#arrow-green)"/>
      <rect x="392" y="433" width="42" height="56" rx="6" fill="#111111"/>
      <circle cx="413" cy="461" r="14" fill="#ffffff"/>
      <circle cx="405" cy="454" r="9" fill="#ffffff"/>
      <circle cx="421" cy="454" r="9" fill="#ffffff"/>
      <rect x="86" y="523" width="285" height="34" rx="6" fill="#ffffff" stroke="#73849a" stroke-dasharray="5 4"/>
      <text class="body" x="230" y="546" text-anchor="middle">Loss: <tspan class="math">L_seg + lambda_c (L_cream + L_align)</tspan></text>
    </g>

    <!-- Optional Text-only Client -->
    <g id="text-only-client" opacity="0.78">
      <rect x="55" y="600" width="350" height="185" rx="10" fill="#f7f7f7" stroke="#8f8f8f" stroke-width="1.4" stroke-dasharray="7 5"/>
      <text class="section" x="170" y="630" text-anchor="middle" fill="#555555">Text-only Client</text>
      <text class="body" x="294" y="630" text-anchor="middle" fill="#777777">(optional)</text>
      <rect x="86" y="662" width="56" height="56" rx="6" fill="#ffffff" stroke="#777777" stroke-width="1.2"/>
      <text x="114" y="699" font-size="36" font-weight="700" fill="#555555" text-anchor="middle">T</text>
      <line x1="154" y1="690" x2="188" y2="690" stroke="#777777" stroke-width="2.4" marker-end="url(#arrow-gray)"/>
      <rect x="198" y="660" width="155" height="60" rx="8" fill="#eeeeee" stroke="#999999" stroke-width="1.1"/>
      <text class="small" x="276" y="683" text-anchor="middle" fill="#555555">Text-side</text>
      <text class="small" x="276" y="700" text-anchor="middle" fill="#555555">representation/update</text>
      <rect x="90" y="742" width="275" height="30" rx="6" fill="#ffffff" stroke="#8f8f8f" stroke-dasharray="5 4"/>
      <text class="body" x="228" y="763" text-anchor="middle" fill="#555555">Inactive in A / B / C</text>
    </g>
  </g>

  <!-- Local Training and Upload -->
  <g id="local-training-upload">
    <rect x="465" y="105" width="315" height="710" rx="10" fill="#fcfffc" stroke="#2f7d3b" stroke-width="1.4"/>
    <circle cx="500" cy="132" r="16" fill="#2f7d3b"/>
    <text x="500" y="139" font-size="20" font-weight="700" fill="#ffffff" text-anchor="middle">2</text>
    <text class="section" x="535" y="140" fill="#1c6b27">Local Training &amp; Upload</text>

    <!-- Trainable updates -->
    <rect x="500" y="170" width="245" height="205" rx="9" fill="#f7fbff" stroke="#5a8fd8" stroke-width="1.3"/>
    <text class="label" x="622" y="198" text-anchor="middle">Trainable Parameter Updates</text>
    <g id="param-update-blue">
      <circle cx="530" cy="226" r="16" fill="#dbeafe" stroke="#0b4ea2"/>
      <line x1="516" y1="226" x2="544" y2="226" stroke="#0b4ea2"/>
      <ellipse cx="530" cy="221" rx="14" ry="5" fill="none" stroke="#0b4ea2"/>
      <text class="body" x="565" y="224">Image-only</text>
      <text class="body" x="565" y="244">update</text>
      <circle cx="575" cy="276" r="6" fill="#1455b8"/>
      <circle cx="605" cy="276" r="6" fill="#1455b8"/>
      <circle cx="635" cy="276" r="6" fill="#1455b8"/>
      <circle cx="665" cy="276" r="6" fill="#1455b8"/>
      <circle cx="695" cy="276" r="6" fill="#1455b8"/>
    </g>
    <g id="param-update-green">
      <circle cx="530" cy="317" r="16" fill="#dcfce7" stroke="#2f7d3b"/>
      <line x1="516" y1="317" x2="544" y2="317" stroke="#2f7d3b"/>
      <ellipse cx="530" cy="312" rx="14" ry="5" fill="none" stroke="#2f7d3b"/>
      <text class="body" x="565" y="315">Multimodal</text>
      <text class="body" x="565" y="335">update</text>
      <circle cx="575" cy="348" r="6" fill="#2f7d3b"/>
      <circle cx="605" cy="348" r="6" fill="#2f7d3b"/>
      <circle cx="635" cy="348" r="6" fill="#2f7d3b"/>
      <circle cx="665" cy="348" r="6" fill="#2f7d3b"/>
      <circle cx="695" cy="348" r="6" fill="#2f7d3b"/>
    </g>

    <rect x="525" y="395" width="205" height="72" rx="8" fill="#ffffff" stroke="#8f8f8f" stroke-width="1.2" stroke-dasharray="6 4"/>
    <text class="body" x="548" y="423" font-weight="700">B:</text>
    <text class="body" x="570" y="423">routing disabled</text>
    <text class="body" x="548" y="447" font-weight="700">C:</text>
    <text class="body" x="570" y="447">restricted routing</text>

    <!-- Diagnostic representations -->
    <rect x="500" y="530" width="245" height="170" rx="9" fill="#fbf8ff" stroke="#8b66c2" stroke-width="1.3"/>
    <text class="label" x="622" y="558" text-anchor="middle" fill="#5b3391">Diagnostic Reps Only</text>
    <text class="small" x="622" y="576" text-anchor="middle" fill="#5b3391">(not in FedAvg routing)</text>
    <rect x="552" y="595" width="140" height="40" rx="6" fill="#ffffff" stroke="#8b66c2"/>
    <text class="body" x="622" y="620" text-anchor="middle">Image representation</text>
    <rect x="552" y="645" width="140" height="40" rx="6" fill="#ffffff" stroke="#8b66c2"/>
    <text class="body" x="622" y="670" text-anchor="middle">Text representation</text>
    <rect x="515" y="596" width="28" height="40" rx="4" fill="#f0eaff" stroke="#8b66c2"/>
    <line x1="522" y1="607" x2="536" y2="607" stroke="#8b66c2" stroke-width="2"/>
    <line x1="522" y1="617" x2="536" y2="617" stroke="#8b66c2" stroke-width="2"/>
    <line x1="522" y1="627" x2="536" y2="627" stroke="#8b66c2" stroke-width="2"/>
    <rect x="515" y="646" width="28" height="40" rx="4" fill="#f0eaff" stroke="#8b66c2"/>
    <text x="529" y="674" font-size="25" font-weight="700" fill="#7650a8" text-anchor="middle">T</text>

    <!-- Local upload arrows from clients -->
    <line x1="435" y1="255" x2="465" y2="255" stroke="#1455b8" stroke-width="3" marker-end="url(#arrow-blue)"/>
    <line x1="405" y1="461" x2="465" y2="461" stroke="#2f7d3b" stroke-width="3" marker-end="url(#arrow-green)"/>
    <line x1="405" y1="690" x2="465" y2="690" stroke="#8a8a8a" stroke-width="2" stroke-dasharray="7 6" marker-end="url(#arrow-gray)"/>
  </g>

  <!-- Server-side Compatible Routing -->
  <g id="server-side-compatible-routing">
    <rect x="815" y="105" width="680" height="710" rx="12" fill="#fffdf8" stroke="#e85d2f" stroke-width="1.6"/>
    <circle cx="850" cy="132" r="16" fill="#df3f22"/>
    <text x="850" y="139" font-size="20" font-weight="700" fill="#ffffff" text-anchor="middle">3</text>
    <text class="section" x="895" y="140" fill="#df3f22">Server-side Restricted Routing</text>
    <rect x="1290" y="120" width="120" height="30" rx="14" fill="#ffffff" stroke="#df3f22"/>
    <text class="body" x="1350" y="141" text-anchor="middle" fill="#df3f22" font-weight="700">Group C only</text>

    <!-- Core routing box -->
    <rect x="835" y="165" width="640" height="410" rx="11" fill="#ffffff" stroke="#e85d2f" stroke-width="1.4"/>
    <text x="1145" y="197" font-size="22" font-weight="700" text-anchor="middle">Compatible Parameter Routing</text>
    <text x="1145" y="220" font-size="18" text-anchor="middle">FedAvg base + restricted aggregation</text>
    <text x="1145" y="242" font-size="14" font-weight="700" fill="#df3f22" text-anchor="middle">Restricted Aggregation</text>

    <!-- Visual row -->
    <g id="visual-param-row">
      <rect x="855" y="260" width="505" height="95" rx="9" fill="#f2f7ff" stroke="#5a8fd8" stroke-width="1.2"/>
      <circle cx="900" cy="307" r="28" fill="#e8f2ff" stroke="#1455b8" stroke-width="1.4"/>
      <path d="M875,307 C890,285 910,285 925,307 C910,329 890,329 875,307 Z" fill="none" stroke="#1455b8" stroke-width="3"/>
      <circle cx="900" cy="307" r="9" fill="#1455b8"/>
      <rect x="950" y="282" width="165" height="50" rx="6" fill="#ffffff" stroke="#5a8fd8"/>
      <text class="label" x="1032" y="303" text-anchor="middle" fill="#0b4ea2">Shared / visual</text>
      <text class="label" x="1032" y="323" text-anchor="middle" fill="#0b4ea2">parameter group</text>
      <text class="small" x="950" y="345" fill="#111827">IMAGE_PARAMS / VISION_ADAPTER</text>
      <rect x="1160" y="278" width="168" height="58" rx="6" fill="#ffffff" stroke="#5a8fd8"/>
      <text class="body" x="1244" y="299" text-anchor="middle">Eligible:</text>
      <text class="body" x="1244" y="318" text-anchor="middle">image-only + multimodal</text>
      <circle cx="1217" cy="337" r="6" fill="#1455b8"/>
      <circle cx="1244" cy="337" r="6" fill="#1455b8"/>
      <circle cx="1271" cy="337" r="6" fill="#2f7d3b"/>
      <line x1="1360" y1="307" x2="1378" y2="307" stroke="#111111" stroke-width="2.3" marker-end="url(#arrow-black)"/>
    </g>

    <!-- Text row -->
    <g id="text-param-row">
      <rect x="855" y="370" width="505" height="95" rx="9" fill="#f3fbf2" stroke="#6fa66f" stroke-width="1.2"/>
      <circle cx="900" cy="417" r="28" fill="#eef8ed" stroke="#2f7d3b" stroke-width="1.4"/>
      <text x="900" y="430" font-size="44" font-weight="700" fill="#2f7d3b" text-anchor="middle">T</text>
      <rect x="950" y="392" width="165" height="50" rx="6" fill="#ffffff" stroke="#6fa66f"/>
      <text class="label" x="1032" y="413" text-anchor="middle" fill="#1c6b27">Text / multimodal</text>
      <text class="label" x="1032" y="433" text-anchor="middle" fill="#1c6b27">parameter group</text>
      <text class="small" x="950" y="455" fill="#111827">TEXT_PARAMS / TEXT_ADAPTER</text>
      <rect x="1160" y="388" width="168" height="62" rx="6" fill="#ffffff" stroke="#6fa66f"/>
      <text class="body" x="1244" y="409" text-anchor="middle">Eligible:</text>
      <text class="body" x="1244" y="428" text-anchor="middle">multimodal</text>
      <text class="small" x="1244" y="444" text-anchor="middle">(+ optional text-only)</text>
      <circle cx="1217" cy="452" r="6" fill="#2f7d3b"/>
      <circle cx="1244" cy="452" r="6" fill="#2f7d3b"/>
      <circle cx="1271" cy="452" r="6" fill="#ffffff" stroke="#777777"/>
      <line x1="1360" y1="417" x2="1378" y2="417" stroke="#111111" stroke-width="2.3" marker-end="url(#arrow-black)"/>
    </g>

    <!-- Fallback row -->
    <g id="fallback-param-row">
      <rect x="855" y="480" width="505" height="95" rx="9" fill="#fff7ed" stroke="#ff9a45" stroke-width="1.2"/>
      <circle cx="900" cy="527" r="28" fill="#fff2df" stroke="#ef7a13" stroke-width="1.4"/>
      <path d="M889,516 h10 v-10 h14 v10 h10 v14 h-10 v10 h-14 v-10 h-10 Z" fill="#ef7a13"/>
      <rect x="950" y="502" width="165" height="50" rx="6" fill="#ffffff" stroke="#ff9a45"/>
      <text class="label" x="1032" y="532" text-anchor="middle" fill="#df4d00">Fallback-compatible group</text>
      <text class="small" x="950" y="565" fill="#111827">COMPAT_FALLBACK</text>
      <rect x="1160" y="498" width="168" height="62" rx="6" fill="#ffffff" stroke="#ff9a45"/>
      <text class="body" x="1244" y="520" text-anchor="middle">Eligible:</text>
      <text class="body" x="1244" y="539" text-anchor="middle">actual uploaders</text>
      <circle cx="1217" cy="562" r="6" fill="#1455b8"/>
      <circle cx="1244" cy="562" r="6" fill="#2f7d3b"/>
      <circle cx="1271" cy="562" r="6" fill="#ef7a13"/>
      <line x1="1360" y1="527" x2="1378" y2="527" stroke="#111111" stroke-width="2.3" marker-end="url(#arrow-black)"/>
    </g>

    <!-- Aggregation and safe fill -->
    <rect x="1380" y="275" width="90" height="165" rx="8" fill="#ffffff" stroke="#777777" stroke-width="1.2"/>
    <text class="label" x="1425" y="325" text-anchor="middle">Weighted</text>
    <text class="label" x="1425" y="345" text-anchor="middle">Aggregation</text>
    <text class="body" x="1425" y="367" text-anchor="middle">(FedAvg)</text>
    <line x1="1425" y1="440" x2="1425" y2="468" stroke="#111111" stroke-width="2" marker-end="url(#arrow-black)"/>
    <rect x="1372" y="470" width="103" height="80" rx="8" fill="#ffffff" stroke="#777777" stroke-width="1.2"/>
    <text class="label" x="1424" y="497" text-anchor="middle">Missing keys</text>
    <text class="label" x="1424" y="516" text-anchor="middle">safe fill</text>
    <text class="small" x="1424" y="535" text-anchor="middle">with global value</text>
    <line x1="1475" y1="510" x2="1575" y2="510" stroke="#7650a8" stroke-width="3" marker-end="url(#arrow-purple)"/>

    <!-- Compatibility contribution inset -->
    <rect x="855" y="595" width="520" height="118" rx="9" fill="#ffffff" stroke="#9a82c2" stroke-width="1.1" stroke-dasharray="5 4"/>
    <text class="label" x="1115" y="620" text-anchor="middle" fill="#5b3391">Client Contributions (by compatibility)</text>
    <g id="server-client-icons">
      <rect x="905" y="642" width="82" height="48" rx="8" fill="#f2f7ff" stroke="#5a8fd8"/>
      <circle cx="946" cy="660" r="8" fill="#1455b8"/>
      <path d="M929,684 C934,668 958,668 963,684 Z" fill="#1455b8"/>
      <text class="small" x="946" y="709" text-anchor="middle">Image-only</text>
      <text class="small" x="946" y="724" text-anchor="middle">Client</text>

      <rect x="1072" y="642" width="82" height="48" rx="8" fill="#f3fbf2" stroke="#6fa66f"/>
      <circle cx="1100" cy="660" r="8" fill="#2f7d3b"/>
      <circle cx="1128" cy="660" r="8" fill="#2f7d3b"/>
      <path d="M1084,684 C1089,668 1111,668 1116,684 Z" fill="#2f7d3b"/>
      <path d="M1112,684 C1117,668 1139,668 1144,684 Z" fill="#2f7d3b"/>
      <text class="small" x="1113" y="709" text-anchor="middle">Multimodal</text>
      <text class="small" x="1113" y="724" text-anchor="middle">Client</text>

      <rect x="1240" y="642" width="82" height="48" rx="8" fill="#f7f7f7" stroke="#999999" stroke-dasharray="6 4"/>
      <circle cx="1281" cy="660" r="8" fill="#777777"/>
      <path d="M1264,684 C1269,668 1293,668 1298,684 Z" fill="#777777"/>
      <text class="small" x="1281" y="709" text-anchor="middle">Text-only</text>
      <text class="small" x="1281" y="724" text-anchor="middle">Client</text>
      <text class="tiny" x="1281" y="739" text-anchor="middle">(not activated)</text>
    </g>

    <!-- Auxiliary Representation Path -->
    <g id="auxiliary-representation-path">
      <rect x="850" y="735" width="550" height="70" rx="9" fill="#fbf8ff" stroke="#8b66c2" stroke-width="1.2" stroke-dasharray="7 5"/>
      <text class="label" x="1115" y="758" text-anchor="middle" fill="#5b3391">Auxiliary Global Proxy Refresh</text>
      <text class="small" x="1115" y="776" text-anchor="middle" fill="#5b3391">before local training; auxiliary semantic anchor; not from client reps</text>
      <rect x="885" y="784" width="118" height="16" rx="2" fill="#e8f2ff" stroke="#5a8fd8"/>
      <rect x="890" y="787" width="20" height="10" fill="#1455b8"/>
      <rect x="914" y="787" width="20" height="10" fill="#2f66bc"/>
      <rect x="938" y="787" width="20" height="10" fill="#5a8fd8"/>
      <text class="tiny" x="944" y="816" text-anchor="middle">Global image representation: EMA update</text>
      <line x1="1015" y1="792" x2="1068" y2="792" stroke="#7650a8" stroke-width="1.8" marker-end="url(#arrow-purple)"/>
      <rect x="1080" y="784" width="118" height="16" rx="2" fill="#f3fbf2" stroke="#6fa66f"/>
      <rect x="1085" y="787" width="20" height="10" fill="#2f7d3b"/>
      <rect x="1109" y="787" width="20" height="10" fill="#5b9855"/>
      <rect x="1133" y="787" width="20" height="10" fill="#8fbd86"/>
      <text class="tiny" x="1139" y="816" text-anchor="middle">Global text representation: text projection</text>
      <text class="tiny" x="1310" y="795" text-anchor="middle" fill="#5b3391">Not the primary claimed gain</text>
    </g>
  </g>

  <!-- Upload arrows into server -->
  <g id="upload-arrows">
    <line x1="745" y1="278" x2="815" y2="278" stroke="#1455b8" stroke-width="3.2" marker-end="url(#arrow-blue)"/>
    <text class="body" x="780" y="258" text-anchor="middle" fill="#1455b8">Parameter Update</text>
    <line x1="745" y1="338" x2="815" y2="338" stroke="#1455b8" stroke-width="2.4" stroke-dasharray="8 8" marker-end="url(#arrow-blue)"/>
    <text class="body" x="780" y="325" text-anchor="middle" fill="#1455b8">Diagnostic reps only</text>
    <line x1="745" y1="460" x2="815" y2="460" stroke="#2f7d3b" stroke-width="3.2" marker-end="url(#arrow-green)"/>
    <text class="body" x="780" y="440" text-anchor="middle" fill="#2f7d3b">Parameter Update</text>
    <line x1="745" y1="520" x2="815" y2="520" stroke="#2f7d3b" stroke-width="2.4" stroke-dasharray="8 8" marker-end="url(#arrow-green)"/>
    <text class="body" x="780" y="507" text-anchor="middle" fill="#2f7d3b">Diagnostic reps only</text>
    <line x1="745" y1="690" x2="815" y2="690" stroke="#8a8a8a" stroke-width="2" stroke-dasharray="7 6" marker-end="url(#arrow-gray)"/>
    <text class="small" x="780" y="675" text-anchor="middle" fill="#777777">optional inactive</text>
  </g>

  <!-- Updated Global Model -->
  <g id="updated-global-model">
    <rect x="1510" y="105" width="260" height="450" rx="10" fill="#fcfffa" stroke="#2f7d3b" stroke-width="1.6"/>
    <circle cx="1545" cy="132" r="16" fill="#276b2c"/>
    <text x="1545" y="139" font-size="20" font-weight="700" fill="#ffffff" text-anchor="middle">4</text>
    <text class="section" x="1580" y="140" fill="#276b2c">Updated Global Model</text>
    <rect x="1535" y="165" width="210" height="335" rx="9" fill="#ffffff" stroke="#8b66c2" stroke-width="1.2"/>
    <text class="label" x="1640" y="195" text-anchor="middle" fill="#5b3391">SAM3MedicalIntegrated</text>

    <rect x="1560" y="220" width="160" height="48" rx="6" fill="#e6f0ff" stroke="#5a8fd8"/>
    <text class="body" x="1640" y="239" text-anchor="middle">SAM3 Backbone</text>
    <text class="small" x="1640" y="257" text-anchor="middle">(Visual Encoder)</text>
    <line x1="1640" y1="268" x2="1640" y2="287" stroke="#222222" stroke-width="1.8" marker-end="url(#arrow-black)"/>

    <rect x="1560" y="292" width="160" height="48" rx="6" fill="#eef8ed" stroke="#6fa66f"/>
    <text class="body" x="1640" y="312" text-anchor="middle">Adapter / Prompt</text>
    <text class="small" x="1640" y="329" text-anchor="middle">Modules</text>
    <line x1="1640" y1="340" x2="1640" y2="359" stroke="#222222" stroke-width="1.8" marker-end="url(#arrow-black)"/>

    <rect x="1560" y="364" width="160" height="48" rx="6" fill="#fff6df" stroke="#e5b64c"/>
    <text class="body" x="1640" y="385" text-anchor="middle">Multimodal</text>
    <text class="body" x="1640" y="404" text-anchor="middle">Fusion Head</text>
    <line x1="1640" y1="412" x2="1640" y2="431" stroke="#222222" stroke-width="1.8" marker-end="url(#arrow-black)"/>

    <rect x="1560" y="436" width="160" height="48" rx="6" fill="#f0eaff" stroke="#8b66c2"/>
    <text class="body" x="1640" y="457" text-anchor="middle">Text Prompt Encoder</text>
    <text class="small" x="1640" y="474" text-anchor="middle">(with global text proxy)</text>
    <line x1="1640" y1="484" x2="1640" y2="504" stroke="#222222" stroke-width="1.8" marker-end="url(#arrow-black)"/>

    <rect x="1560" y="508" width="160" height="48" rx="6" fill="#fff1f0" stroke="#e77e78"/>
    <text class="body" x="1640" y="529" text-anchor="middle">Mask Decoder /</text>
    <text class="body" x="1640" y="548" text-anchor="middle">Seg Head</text>

    <!-- Side output -->
    <rect x="1515" y="610" width="250" height="135" rx="9" fill="#f8fbff" stroke="#5a8fd8" stroke-width="1.2"/>
    <text class="label" x="1640" y="637" text-anchor="middle" fill="#0b4ea2">Output Channels</text>
    <text class="body" x="1640" y="662" text-anchor="middle">BG / WT / ET</text>
    <circle cx="1605" cy="690" r="8" fill="#ffffff" stroke="#111111"/>
    <text class="small" x="1622" y="694">BG</text>
    <circle cx="1660" cy="690" r="8" fill="#f6d66d" stroke="#8a6d00"/>
    <text class="small" x="1677" y="694">WT</text>
    <circle cx="1715" cy="690" r="8" fill="#f05b4f" stroke="#8a1f16"/>
    <text class="small" x="1732" y="694">ET</text>
    <rect x="1515" y="760" width="250" height="75" rx="9" fill="#f8fbff" stroke="#5a8fd8" stroke-width="1.2"/>
    <text class="label" x="1640" y="790" text-anchor="middle" fill="#0b4ea2">Metrics</text>
    <text class="body" x="1640" y="816" text-anchor="middle">WT / ET and HD95</text>

    <!-- Broadcast label -->
    <rect x="1548" y="575" width="185" height="34" rx="7" fill="#ffffff" stroke="#8b66c2"/>
    <text class="body" x="1640" y="597" text-anchor="middle">Broadcast to clients</text>
  </g>

  <!-- Server to model and broadcast arrows -->
  <g id="global-flow">
    <line x1="1475" y1="510" x2="1510" y2="510" stroke="#7650a8" stroke-width="3" marker-end="url(#arrow-purple)"/>
    <path d="M1640,555 L1640,585" fill="none" stroke="#276b2c" stroke-width="3" marker-end="url(#arrow-green)"/>
    <path d="M1640,610 L1640,855 L180,855 L180,815" fill="none" stroke="#7650a8" stroke-width="3" marker-end="url(#arrow-purple)"/>
    <text class="body" x="780" y="844" text-anchor="middle" fill="#5b3391" font-weight="700">Broadcast to Clients (Next Round)</text>
  </g>

  <!-- A/B/C Protocol Settings -->
  <g id="abc-protocol-settings">
    <rect x="30" y="875" width="1425" height="85" rx="9" fill="#fbfbfb" stroke="#7f8a9b" stroke-width="1.1"/>
    <text class="section" x="760" y="900" text-anchor="middle">A/B/C Protocol Settings</text>

    <rect x="70" y="905" width="390" height="42" rx="7" fill="#f2f7ff" stroke="#5a8fd8"/>
    <circle cx="105" cy="926" r="15" fill="#1455b8"/>
    <text x="105" y="932" font-size="18" font-weight="700" fill="#ffffff" text-anchor="middle">A</text>
    <text class="label" x="145" y="923" fill="#0b4ea2">image-only + FedAvg</text>
    <text class="small" x="145" y="941">Clients: image-only; routing disabled / not needed</text>

    <rect x="500" y="905" width="390" height="42" rx="7" fill="#f3fbf2" stroke="#6fa66f"/>
    <circle cx="535" cy="926" r="15" fill="#2f7d3b"/>
    <text x="535" y="932" font-size="18" font-weight="700" fill="#ffffff" text-anchor="middle">B</text>
    <text class="label" x="575" y="923" fill="#1c6b27">image-only + multimodal + FedAvg</text>
    <text class="small" x="575" y="941">Clients: image-only + multimodal; routing disabled</text>

    <rect x="930" y="905" width="430" height="42" rx="7" fill="#fff7ed" stroke="#ff9a45"/>
    <circle cx="965" cy="926" r="15" fill="#ef7a13"/>
    <text x="965" y="932" font-size="18" font-weight="700" fill="#ffffff" text-anchor="middle">C</text>
    <text class="label" x="1005" y="923" fill="#df4d00">same clients as B + restricted routing</text>
    <text class="small" x="1005" y="941">Clients: image-only + multimodal; routing enabled</text>

    <rect x="1480" y="875" width="285" height="85" rx="9" fill="#ffffff" stroke="#8b66c2" stroke-width="1.1" stroke-dasharray="6 4"/>
    <circle cx="1510" cy="910" r="9" fill="#5b3391"/>
    <circle cx="1530" cy="910" r="9" fill="#5b3391"/>
    <path d="M1494,936 C1498,920 1522,920 1526,936 Z" fill="#5b3391"/>
    <path d="M1514,936 C1518,920 1542,920 1546,936 Z" fill="#5b3391"/>
    <text class="body" x="1630" y="908" text-anchor="middle" fill="#5b3391" font-weight="700">B and C use the</text>
    <text class="body" x="1630" y="928" text-anchor="middle" fill="#5b3391" font-weight="700">same client types;</text>
    <text class="body" x="1630" y="948" text-anchor="middle" fill="#5b3391">only C enables routing.</text>
  </g>

  <!-- Legend -->
  <g id="legend">
    <line x1="65" y1="968" x2="105" y2="968" stroke="#111111" stroke-width="2.2" marker-end="url(#arrow-black)"/>
    <text class="tiny" x="115" y="972">main data flow</text>
    <line x1="220" y1="968" x2="260" y2="968" stroke="#777777" stroke-width="1.8" stroke-dasharray="7 5" marker-end="url(#arrow-gray)"/>
    <text class="tiny" x="270" y="972">auxiliary / inactive flow</text>
    <rect x="430" y="958" width="16" height="16" fill="#e6f0ff" stroke="#5a8fd8"/>
    <text class="tiny" x="455" y="972">image-side parameters</text>
    <rect x="590" y="958" width="16" height="16" fill="#f0eaff" stroke="#8b66c2"/>
    <text class="tiny" x="615" y="972">text-side / proxy path</text>
    <rect x="760" y="958" width="16" height="16" fill="#fff7ed" stroke="#ff9a45"/>
    <text class="tiny" x="785" y="972">fallback parameters</text>
  </g>
</svg>
