<svg xmlns="http://www.w3.org/2000/svg" width="392" height="132" viewBox="0 0 392 132" role="img" aria-labelledby="title desc">
  <title id="title">FedSAM3 framework icons</title>
  <desc id="desc">Original vector icons for frozen parameters, learnable parameters, and an MRI slice. The artwork uses only generated SVG primitives and contains no external assets.</desc>
  <g id="icon-snowflake" transform="translate(18 18) scale(0.96)">
    <circle cx="50" cy="50" r="46" fill="#eff6ff" stroke="#4d84cf" stroke-width="1.6"/>
    <line x1="50" y1="15" x2="50" y2="85" stroke="#0b4ea2" stroke-width="5.0" stroke-linecap="round"/>
    <line x1="19.7" y1="32.5" x2="80.3" y2="67.5" stroke="#0b4ea2" stroke-width="5.0" stroke-linecap="round"/>
    <line x1="19.7" y1="67.5" x2="80.3" y2="32.5" stroke="#0b4ea2" stroke-width="5.0" stroke-linecap="round"/>
    <circle cx="50" cy="50" r="5.8" fill="#0b4ea2"/>
    <line x1="50" y1="25" x2="38" y2="18" stroke="#0b4ea2" stroke-width="3.2" stroke-linecap="round"/>
    <line x1="50" y1="25" x2="62" y2="18" stroke="#0b4ea2" stroke-width="3.2" stroke-linecap="round"/>
    <line x1="50" y1="75" x2="38" y2="82" stroke="#0b4ea2" stroke-width="3.2" stroke-linecap="round"/>
    <line x1="50" y1="75" x2="62" y2="82" stroke="#0b4ea2" stroke-width="3.2" stroke-linecap="round"/>
    <line x1="29" y1="38" x2="25" y2="25" stroke="#0b4ea2" stroke-width="3.2" stroke-linecap="round"/>
    <line x1="29" y1="38" x2="16" y2="42" stroke="#0b4ea2" stroke-width="3.2" stroke-linecap="round"/>
    <line x1="71" y1="62" x2="84" y2="58" stroke="#0b4ea2" stroke-width="3.2" stroke-linecap="round"/>
    <line x1="71" y1="62" x2="75" y2="75" stroke="#0b4ea2" stroke-width="3.2" stroke-linecap="round"/>
    <line x1="29" y1="62" x2="16" y2="58" stroke="#0b4ea2" stroke-width="3.2" stroke-linecap="round"/>
    <line x1="29" y1="62" x2="25" y2="75" stroke="#0b4ea2" stroke-width="3.2" stroke-linecap="round"/>
    <line x1="71" y1="38" x2="75" y2="25" stroke="#0b4ea2" stroke-width="3.2" stroke-linecap="round"/>
    <line x1="71" y1="38" x2="84" y2="42" stroke="#0b4ea2" stroke-width="3.2" stroke-linecap="round"/>
  </g>
  <g id="icon-flame" transform="translate(148 18) scale(0.96)">
    <circle cx="50" cy="50" r="46" fill="#fff7ed" stroke="#ff6b1a" stroke-width="1.6"/>
    <path d="M51 83 C34 77 28 64 32 50 C35 39 43 34 43 22 C54 30 58 39 57 48 C64 42 67 35 66 27 C79 43 82 59 73 72 C68 79 61 83 51 83 Z" fill="#ff6b1a"/>
    <path d="M49 78 C39 73 36 64 39 56 C41 50 47 46 47 37 C55 45 58 52 55 60 C60 56 63 51 63 45 C70 56 68 69 60 75 C57 78 53 79 49 78 Z" fill="#e43f16"/>
    <path d="M48 73 C43 69 43 62 48 57 C51 63 57 66 54 73 C52 76 50 76 48 73 Z" fill="#ffb15a"/>
  </g>
  <g id="icon-mri-slice" transform="translate(278 18) scale(0.96)">
    <rect x="18" y="10" width="64" height="80" rx="8" fill="#111111"/>
    <ellipse cx="50" cy="50" rx="24" ry="33" fill="#d9d9d9"/>
    <ellipse cx="39" cy="50" rx="13.5" ry="26" fill="#f6f6f6"/>
    <ellipse cx="61" cy="50" rx="13.5" ry="26" fill="#f6f6f6"/>
    <path d="M50 18 C44 30 44 42 50 50 C56 58 56 70 50 82" fill="none" stroke="#8c8c8c" stroke-width="2.4" stroke-linecap="round"/>
    <path d="M38 30 C45 36 35 44 43 51 C47 55 43 65 36 70" fill="none" stroke="#8c8c8c" stroke-width="1.4" stroke-linecap="round"/>
    <path d="M62 30 C55 37 65 45 57 52 C53 57 57 66 64 70" fill="none" stroke="#8c8c8c" stroke-width="1.4" stroke-linecap="round"/>
    <path d="M32 43 C39 41 42 46 39 52 C36 57 39 62 45 64" fill="none" stroke="#6f6f6f" stroke-width="1.4" stroke-linecap="round"/>
    <path d="M68 43 C61 41 58 46 61 52 C64 57 61 62 55 64" fill="none" stroke="#6f6f6f" stroke-width="1.4" stroke-linecap="round"/>
    <path d="M36 22 C29 30 28 42 31 53 C34 66 34 74 30 82" fill="none" stroke="#5a5a5a" stroke-width="1.1" stroke-linecap="round" opacity="0.75"/>
    <path d="M64 22 C71 30 72 42 69 53 C66 66 66 74 70 82" fill="none" stroke="#5a5a5a" stroke-width="1.1" stroke-linecap="round" opacity="0.75"/>
  </g>
</svg>
