<svg xmlns="http://www.w3.org/2000/svg" width="100" height="100" viewBox="0 0 100 100" role="img" aria-labelledby="title desc">
  <title id="title">Frozen snowflake icon</title>
  <desc id="desc">Original vector snowflake icon for frozen parameter groups.</desc>
  <circle cx="50" cy="50" r="46" fill="#eff6ff" stroke="#4d84cf" stroke-width="1.6"/>
  <line x1="50" y1="15" x2="50" y2="85" stroke="#0b4ea2" stroke-width="5.0" stroke-linecap="round"/>
  <line x1="19.7" y1="32.5" x2="80.3" y2="67.5" stroke="#0b4ea2" stroke-width="5.0" stroke-linecap="round"/>
  <line x1="19.7" y1="67.5" x2="80.3" y2="32.5" stroke="#0b4ea2" stroke-width="5.0" stroke-linecap="round"/>
  <circle cx="50" cy="50" r="5.8" fill="#0b4ea2"/>
  <line x1="50" y1="25" x2="38" y2="18" stroke="#0b4ea2" stroke-width="3.2" stroke-linecap="round"/>
  <line x1="50" y1="25" x2="62" y2="18" stroke="#0b4ea2" stroke-width="3.2" stroke-linecap="round"/>
  <line x1="50" y1="75" x2="38" y2="82" stroke="#0b4ea2" stroke-width="3.2" stroke-linecap="round"/>
  <line x1="50" y1="75" x2="62" y2="82" stroke="#0b4ea2" stroke-width="3.2" stroke-linecap="round"/>
  <line x1="29" y1="38" x2="25" y2="25" stroke="#0b4ea2" stroke-width="3.2" stroke-linecap="round"/>
  <line x1="29" y1="38" x2="16" y2="42" stroke="#0b4ea2" stroke-width="3.2" stroke-linecap="round"/>
  <line x1="71" y1="62" x2="84" y2="58" stroke="#0b4ea2" stroke-width="3.2" stroke-linecap="round"/>
  <line x1="71" y1="62" x2="75" y2="75" stroke="#0b4ea2" stroke-width="3.2" stroke-linecap="round"/>
  <line x1="29" y1="62" x2="16" y2="58" stroke="#0b4ea2" stroke-width="3.2" stroke-linecap="round"/>
  <line x1="29" y1="62" x2="25" y2="75" stroke="#0b4ea2" stroke-width="3.2" stroke-linecap="round"/>
  <line x1="71" y1="38" x2="75" y2="25" stroke="#0b4ea2" stroke-width="3.2" stroke-linecap="round"/>
  <line x1="71" y1="38" x2="84" y2="42" stroke="#0b4ea2" stroke-width="3.2" stroke-linecap="round"/>
</svg>
