<svg xmlns="http://www.w3.org/2000/svg" width="100" height="100" viewBox="0 0 100 100" role="img" aria-labelledby="title desc">
  <title id="title">Server icon</title>
  <desc id="desc">Original vector server icon for aggregation and routing diagrams.</desc>
  <circle cx="50" cy="50" r="46" fill="#f8fafc" stroke="#94a3b8" stroke-width="1.6"/>
  <rect x="26" y="23" width="48" height="13" rx="3" fill="#3f4b52" opacity="0.28"/>
  <rect x="24" y="21" width="52" height="13" rx="3" fill="#5f6f7a"/>
  <rect x="30" y="25" width="16" height="3" rx="1.5" fill="#7d8c96"/>
  <circle cx="64" cy="27.5" r="2" fill="#34a853"/>
  <circle cx="70" cy="27.5" r="2" fill="#d1d5db"/>
  <rect x="26" y="39" width="48" height="13" rx="3" fill="#3f4b52" opacity="0.28"/>
  <rect x="24" y="37" width="52" height="13" rx="3" fill="#5f6f7a"/>
  <rect x="30" y="41" width="16" height="3" rx="1.5" fill="#7d8c96"/>
  <circle cx="64" cy="43.5" r="2" fill="#f97316"/>
  <circle cx="70" cy="43.5" r="2" fill="#d1d5db"/>
  <rect x="26" y="55" width="48" height="13" rx="3" fill="#3f4b52" opacity="0.28"/>
  <rect x="24" y="53" width="52" height="13" rx="3" fill="#5f6f7a"/>
  <rect x="30" y="57" width="16" height="3" rx="1.5" fill="#7d8c96"/>
  <circle cx="64" cy="59.5" r="2" fill="#34a853"/>
  <circle cx="70" cy="59.5" r="2" fill="#d1d5db"/>
  <rect x="26" y="71" width="48" height="13" rx="3" fill="#3f4b52" opacity="0.28"/>
  <rect x="24" y="69" width="52" height="13" rx="3" fill="#5f6f7a"/>
  <rect x="30" y="73" width="16" height="3" rx="1.5" fill="#7d8c96"/>
  <circle cx="64" cy="75.5" r="2" fill="#f97316"/>
  <circle cx="70" cy="75.5" r="2" fill="#d1d5db"/>
  <path d="M50 84 L50 91" fill="none" stroke="#3f4b52" stroke-width="4" stroke-linecap="round"/>
  <path d="M38 91 L62 91" fill="none" stroke="#3f4b52" stroke-width="4" stroke-linecap="round"/>
</svg>
